<mxfile host="app.diagrams.net" agent="Mozilla/5.0 (Windows NT 10.0; Win64; x64) AppleWebKit/537.36 (KHTML, like Gecko) Chrome/128.0.0.0 Safari/537.36 OPR/114.0.0.0" version="26.0.9">
  <diagram name="Página-1" id="8yb5u2K1VQT_0KLoHg4P">
    <mxGraphModel dx="1291" dy="803" grid="1" gridSize="10" guides="1" tooltips="1" connect="1" arrows="1" fold="1" page="1" pageScale="1" pageWidth="827" pageHeight="1169" math="0" shadow="0">
      <root>
        <mxCell id="0" />
        <mxCell id="1" parent="0" />
        <mxCell id="7JQGpFOacCHXD1f-ilUt-2" style="edgeStyle=orthogonalEdgeStyle;rounded=0;orthogonalLoop=1;jettySize=auto;html=1;" edge="1" parent="1" source="Eqsd-JyI1UGYy--9M8-T-1" target="7JQGpFOacCHXD1f-ilUt-1">
          <mxGeometry relative="1" as="geometry" />
        </mxCell>
        <mxCell id="Eqsd-JyI1UGYy--9M8-T-1" value="Inicio" style="ellipse;whiteSpace=wrap;html=1;fillColor=#e1d5e7;strokeColor=#9673a6;" parent="1" vertex="1">
          <mxGeometry x="100" y="20" width="120" height="80" as="geometry" />
        </mxCell>
        <mxCell id="7JQGpFOacCHXD1f-ilUt-11" style="edgeStyle=orthogonalEdgeStyle;rounded=0;orthogonalLoop=1;jettySize=auto;html=1;entryX=0;entryY=0.5;entryDx=0;entryDy=0;" edge="1" parent="1" source="Eqsd-JyI1UGYy--9M8-T-2" target="7JQGpFOacCHXD1f-ilUt-10">
          <mxGeometry relative="1" as="geometry" />
        </mxCell>
        <mxCell id="7JQGpFOacCHXD1f-ilUt-14" style="edgeStyle=orthogonalEdgeStyle;rounded=0;orthogonalLoop=1;jettySize=auto;html=1;entryX=0;entryY=0.5;entryDx=0;entryDy=0;" edge="1" parent="1" source="Eqsd-JyI1UGYy--9M8-T-2" target="7JQGpFOacCHXD1f-ilUt-12">
          <mxGeometry relative="1" as="geometry" />
        </mxCell>
        <mxCell id="7JQGpFOacCHXD1f-ilUt-15" style="edgeStyle=orthogonalEdgeStyle;rounded=0;orthogonalLoop=1;jettySize=auto;html=1;entryX=0;entryY=0.5;entryDx=0;entryDy=0;" edge="1" parent="1" source="Eqsd-JyI1UGYy--9M8-T-2" target="7JQGpFOacCHXD1f-ilUt-13">
          <mxGeometry relative="1" as="geometry" />
        </mxCell>
        <mxCell id="Eqsd-JyI1UGYy--9M8-T-2" value="Leitura e interpretação dos daods" style="rounded=0;whiteSpace=wrap;html=1;fillColor=#fff2cc;strokeColor=#d6b656;" parent="1" vertex="1">
          <mxGeometry x="270" y="290" width="120" height="60" as="geometry" />
        </mxCell>
        <mxCell id="7JQGpFOacCHXD1f-ilUt-29" style="edgeStyle=orthogonalEdgeStyle;rounded=0;orthogonalLoop=1;jettySize=auto;html=1;entryX=0.5;entryY=0;entryDx=0;entryDy=0;" edge="1" parent="1" source="7JQGpFOacCHXD1f-ilUt-1" target="7JQGpFOacCHXD1f-ilUt-28">
          <mxGeometry relative="1" as="geometry" />
        </mxCell>
        <mxCell id="7JQGpFOacCHXD1f-ilUt-1" value="Inicialização dos sensores" style="shape=parallelogram;perimeter=parallelogramPerimeter;whiteSpace=wrap;html=1;fixedSize=1;fillColor=#f8cecc;strokeColor=#b85450;" vertex="1" parent="1">
          <mxGeometry x="270" y="30" width="120" height="60" as="geometry" />
        </mxCell>
        <mxCell id="7JQGpFOacCHXD1f-ilUt-9" style="edgeStyle=orthogonalEdgeStyle;rounded=0;orthogonalLoop=1;jettySize=auto;html=1;" edge="1" parent="1" source="7JQGpFOacCHXD1f-ilUt-4" target="7JQGpFOacCHXD1f-ilUt-6">
          <mxGeometry relative="1" as="geometry" />
        </mxCell>
        <mxCell id="7JQGpFOacCHXD1f-ilUt-4" value="Formatar os dados em uma string Json" style="rounded=0;whiteSpace=wrap;html=1;fillColor=#fff2cc;strokeColor=#d6b656;" vertex="1" parent="1">
          <mxGeometry x="240" y="640" width="120" height="60" as="geometry" />
        </mxCell>
        <mxCell id="7JQGpFOacCHXD1f-ilUt-27" style="edgeStyle=orthogonalEdgeStyle;rounded=0;orthogonalLoop=1;jettySize=auto;html=1;entryX=0;entryY=0.5;entryDx=0;entryDy=0;" edge="1" parent="1" source="7JQGpFOacCHXD1f-ilUt-6" target="7JQGpFOacCHXD1f-ilUt-26">
          <mxGeometry relative="1" as="geometry" />
        </mxCell>
        <mxCell id="7JQGpFOacCHXD1f-ilUt-6" value="Envio ao servidor pela requisição PUT" style="rounded=0;whiteSpace=wrap;html=1;fillColor=#fff2cc;strokeColor=#d6b656;" vertex="1" parent="1">
          <mxGeometry x="240" y="770" width="120" height="60" as="geometry" />
        </mxCell>
        <mxCell id="7JQGpFOacCHXD1f-ilUt-34" style="edgeStyle=orthogonalEdgeStyle;rounded=0;orthogonalLoop=1;jettySize=auto;html=1;entryX=0;entryY=0.5;entryDx=0;entryDy=0;" edge="1" parent="1" source="7JQGpFOacCHXD1f-ilUt-10" target="7JQGpFOacCHXD1f-ilUt-32">
          <mxGeometry relative="1" as="geometry" />
        </mxCell>
        <mxCell id="7JQGpFOacCHXD1f-ilUt-35" style="edgeStyle=orthogonalEdgeStyle;rounded=0;orthogonalLoop=1;jettySize=auto;html=1;entryX=0;entryY=0.5;entryDx=0;entryDy=0;" edge="1" parent="1" source="7JQGpFOacCHXD1f-ilUt-10" target="7JQGpFOacCHXD1f-ilUt-33">
          <mxGeometry relative="1" as="geometry" />
        </mxCell>
        <mxCell id="7JQGpFOacCHXD1f-ilUt-36" style="edgeStyle=orthogonalEdgeStyle;rounded=0;orthogonalLoop=1;jettySize=auto;html=1;entryX=0;entryY=0.5;entryDx=0;entryDy=0;" edge="1" parent="1" source="7JQGpFOacCHXD1f-ilUt-10" target="7JQGpFOacCHXD1f-ilUt-31">
          <mxGeometry relative="1" as="geometry" />
        </mxCell>
        <mxCell id="7JQGpFOacCHXD1f-ilUt-10" value="Nivel de Água" style="rounded=0;whiteSpace=wrap;html=1;fillColor=#fff2cc;strokeColor=#d6b656;" vertex="1" parent="1">
          <mxGeometry x="450" y="400" width="120" height="60" as="geometry" />
        </mxCell>
        <mxCell id="7JQGpFOacCHXD1f-ilUt-20" style="edgeStyle=orthogonalEdgeStyle;rounded=0;orthogonalLoop=1;jettySize=auto;html=1;entryX=0;entryY=0.5;entryDx=0;entryDy=0;" edge="1" parent="1" source="7JQGpFOacCHXD1f-ilUt-12" target="7JQGpFOacCHXD1f-ilUt-19">
          <mxGeometry relative="1" as="geometry" />
        </mxCell>
        <mxCell id="7JQGpFOacCHXD1f-ilUt-21" style="edgeStyle=orthogonalEdgeStyle;rounded=0;orthogonalLoop=1;jettySize=auto;html=1;entryX=0;entryY=0.5;entryDx=0;entryDy=0;" edge="1" parent="1" source="7JQGpFOacCHXD1f-ilUt-12" target="7JQGpFOacCHXD1f-ilUt-18">
          <mxGeometry relative="1" as="geometry" />
        </mxCell>
        <mxCell id="7JQGpFOacCHXD1f-ilUt-12" value="Fluxo de agua" style="rounded=0;whiteSpace=wrap;html=1;fillColor=#fff2cc;strokeColor=#d6b656;" vertex="1" parent="1">
          <mxGeometry x="450" y="200" width="120" height="60" as="geometry" />
        </mxCell>
        <mxCell id="7JQGpFOacCHXD1f-ilUt-45" style="edgeStyle=orthogonalEdgeStyle;rounded=0;orthogonalLoop=1;jettySize=auto;html=1;entryX=0;entryY=0.5;entryDx=0;entryDy=0;" edge="1" parent="1" source="7JQGpFOacCHXD1f-ilUt-13" target="7JQGpFOacCHXD1f-ilUt-43">
          <mxGeometry relative="1" as="geometry" />
        </mxCell>
        <mxCell id="7JQGpFOacCHXD1f-ilUt-46" style="edgeStyle=orthogonalEdgeStyle;rounded=0;orthogonalLoop=1;jettySize=auto;html=1;entryX=0;entryY=0.5;entryDx=0;entryDy=0;" edge="1" parent="1" source="7JQGpFOacCHXD1f-ilUt-13" target="7JQGpFOacCHXD1f-ilUt-44">
          <mxGeometry relative="1" as="geometry" />
        </mxCell>
        <mxCell id="7JQGpFOacCHXD1f-ilUt-13" value="Luminosidade" style="rounded=0;whiteSpace=wrap;html=1;fillColor=#fff2cc;strokeColor=#d6b656;" vertex="1" parent="1">
          <mxGeometry x="450" y="610" width="120" height="60" as="geometry" />
        </mxCell>
        <mxCell id="7JQGpFOacCHXD1f-ilUt-23" style="edgeStyle=orthogonalEdgeStyle;rounded=0;orthogonalLoop=1;jettySize=auto;html=1;" edge="1" parent="1" source="7JQGpFOacCHXD1f-ilUt-18" target="7JQGpFOacCHXD1f-ilUt-22">
          <mxGeometry relative="1" as="geometry" />
        </mxCell>
        <mxCell id="7JQGpFOacCHXD1f-ilUt-18" value="Não há Fluxo" style="rounded=0;whiteSpace=wrap;html=1;fillColor=#fff2cc;strokeColor=#d6b656;" vertex="1" parent="1">
          <mxGeometry x="610" y="150" width="120" height="60" as="geometry" />
        </mxCell>
        <mxCell id="7JQGpFOacCHXD1f-ilUt-25" style="edgeStyle=orthogonalEdgeStyle;rounded=0;orthogonalLoop=1;jettySize=auto;html=1;entryX=0;entryY=0.5;entryDx=0;entryDy=0;" edge="1" parent="1" source="7JQGpFOacCHXD1f-ilUt-19" target="7JQGpFOacCHXD1f-ilUt-24">
          <mxGeometry relative="1" as="geometry" />
        </mxCell>
        <mxCell id="7JQGpFOacCHXD1f-ilUt-19" value="Há Fluxo" style="rounded=0;whiteSpace=wrap;html=1;fillColor=#fff2cc;strokeColor=#d6b656;" vertex="1" parent="1">
          <mxGeometry x="610" y="240" width="120" height="60" as="geometry" />
        </mxCell>
        <mxCell id="7JQGpFOacCHXD1f-ilUt-22" value="Motor desligado" style="rounded=0;whiteSpace=wrap;html=1;fillColor=#fff2cc;strokeColor=#d6b656;" vertex="1" parent="1">
          <mxGeometry x="780" y="150" width="120" height="60" as="geometry" />
        </mxCell>
        <mxCell id="7JQGpFOacCHXD1f-ilUt-24" value="Motor Ligado" style="rounded=0;whiteSpace=wrap;html=1;fillColor=#fff2cc;strokeColor=#d6b656;" vertex="1" parent="1">
          <mxGeometry x="780" y="240" width="120" height="60" as="geometry" />
        </mxCell>
        <mxCell id="7JQGpFOacCHXD1f-ilUt-26" value="FIM" style="ellipse;whiteSpace=wrap;html=1;fillColor=#f8cecc;strokeColor=#b85450;" vertex="1" parent="1">
          <mxGeometry x="414" y="760" width="120" height="80" as="geometry" />
        </mxCell>
        <mxCell id="7JQGpFOacCHXD1f-ilUt-30" style="edgeStyle=orthogonalEdgeStyle;rounded=0;orthogonalLoop=1;jettySize=auto;html=1;entryX=0.5;entryY=0;entryDx=0;entryDy=0;" edge="1" parent="1" source="7JQGpFOacCHXD1f-ilUt-28" target="Eqsd-JyI1UGYy--9M8-T-2">
          <mxGeometry relative="1" as="geometry" />
        </mxCell>
        <mxCell id="7JQGpFOacCHXD1f-ilUt-28" value="Captura dos dados" style="rounded=0;whiteSpace=wrap;html=1;fillColor=#fff2cc;strokeColor=#d6b656;" vertex="1" parent="1">
          <mxGeometry x="270" y="140" width="120" height="60" as="geometry" />
        </mxCell>
        <mxCell id="7JQGpFOacCHXD1f-ilUt-42" style="edgeStyle=orthogonalEdgeStyle;rounded=0;orthogonalLoop=1;jettySize=auto;html=1;entryX=0;entryY=0.5;entryDx=0;entryDy=0;" edge="1" parent="1" source="7JQGpFOacCHXD1f-ilUt-31" target="7JQGpFOacCHXD1f-ilUt-37">
          <mxGeometry relative="1" as="geometry" />
        </mxCell>
        <mxCell id="7JQGpFOacCHXD1f-ilUt-31" value="menor ou igual a 11.5" style="rounded=0;whiteSpace=wrap;html=1;fillColor=#fff2cc;strokeColor=#d6b656;" vertex="1" parent="1">
          <mxGeometry x="610" y="320" width="120" height="60" as="geometry" />
        </mxCell>
        <mxCell id="7JQGpFOacCHXD1f-ilUt-41" style="edgeStyle=orthogonalEdgeStyle;rounded=0;orthogonalLoop=1;jettySize=auto;html=1;entryX=0;entryY=0.5;entryDx=0;entryDy=0;" edge="1" parent="1" source="7JQGpFOacCHXD1f-ilUt-32" target="7JQGpFOacCHXD1f-ilUt-38">
          <mxGeometry relative="1" as="geometry" />
        </mxCell>
        <mxCell id="7JQGpFOacCHXD1f-ilUt-32" value="menor ou igual a 23.0 e maior que 11.5" style="rounded=0;whiteSpace=wrap;html=1;fillColor=#fff2cc;strokeColor=#d6b656;" vertex="1" parent="1">
          <mxGeometry x="610" y="400" width="120" height="60" as="geometry" />
        </mxCell>
        <mxCell id="7JQGpFOacCHXD1f-ilUt-40" style="edgeStyle=orthogonalEdgeStyle;rounded=0;orthogonalLoop=1;jettySize=auto;html=1;entryX=0;entryY=0.5;entryDx=0;entryDy=0;" edge="1" parent="1" source="7JQGpFOacCHXD1f-ilUt-33" target="7JQGpFOacCHXD1f-ilUt-39">
          <mxGeometry relative="1" as="geometry" />
        </mxCell>
        <mxCell id="7JQGpFOacCHXD1f-ilUt-33" value="maior que 23.0" style="rounded=0;whiteSpace=wrap;html=1;fillColor=#fff2cc;strokeColor=#d6b656;" vertex="1" parent="1">
          <mxGeometry x="610" y="480" width="120" height="60" as="geometry" />
        </mxCell>
        <mxCell id="7JQGpFOacCHXD1f-ilUt-37" value="Alto" style="rounded=0;whiteSpace=wrap;html=1;fillColor=#fff2cc;strokeColor=#d6b656;" vertex="1" parent="1">
          <mxGeometry x="780" y="320" width="120" height="60" as="geometry" />
        </mxCell>
        <mxCell id="7JQGpFOacCHXD1f-ilUt-38" value="Médio" style="rounded=0;whiteSpace=wrap;html=1;fillColor=#fff2cc;strokeColor=#d6b656;" vertex="1" parent="1">
          <mxGeometry x="780" y="400" width="120" height="60" as="geometry" />
        </mxCell>
        <mxCell id="7JQGpFOacCHXD1f-ilUt-39" value="Baixo" style="rounded=0;whiteSpace=wrap;html=1;fillColor=#fff2cc;strokeColor=#d6b656;" vertex="1" parent="1">
          <mxGeometry x="780" y="480" width="120" height="60" as="geometry" />
        </mxCell>
        <mxCell id="7JQGpFOacCHXD1f-ilUt-49" style="edgeStyle=orthogonalEdgeStyle;rounded=0;orthogonalLoop=1;jettySize=auto;html=1;entryX=0;entryY=0.5;entryDx=0;entryDy=0;" edge="1" parent="1" source="7JQGpFOacCHXD1f-ilUt-43" target="7JQGpFOacCHXD1f-ilUt-48">
          <mxGeometry relative="1" as="geometry" />
        </mxCell>
        <mxCell id="7JQGpFOacCHXD1f-ilUt-43" value="Acima de 2000" style="rounded=0;whiteSpace=wrap;html=1;fillColor=#fff2cc;strokeColor=#d6b656;" vertex="1" parent="1">
          <mxGeometry x="610" y="570" width="120" height="60" as="geometry" />
        </mxCell>
        <mxCell id="7JQGpFOacCHXD1f-ilUt-50" style="edgeStyle=orthogonalEdgeStyle;rounded=0;orthogonalLoop=1;jettySize=auto;html=1;entryX=0;entryY=0.5;entryDx=0;entryDy=0;" edge="1" parent="1" source="7JQGpFOacCHXD1f-ilUt-44" target="7JQGpFOacCHXD1f-ilUt-47">
          <mxGeometry relative="1" as="geometry" />
        </mxCell>
        <mxCell id="7JQGpFOacCHXD1f-ilUt-44" value="Abaixo de 2000" style="rounded=0;whiteSpace=wrap;html=1;fillColor=#fff2cc;strokeColor=#d6b656;" vertex="1" parent="1">
          <mxGeometry x="610" y="650" width="120" height="60" as="geometry" />
        </mxCell>
        <mxCell id="7JQGpFOacCHXD1f-ilUt-54" style="edgeStyle=orthogonalEdgeStyle;rounded=0;orthogonalLoop=1;jettySize=auto;html=1;entryX=0;entryY=0.5;entryDx=0;entryDy=0;" edge="1" parent="1" source="7JQGpFOacCHXD1f-ilUt-47" target="7JQGpFOacCHXD1f-ilUt-52">
          <mxGeometry relative="1" as="geometry" />
        </mxCell>
        <mxCell id="7JQGpFOacCHXD1f-ilUt-47" value="Noite" style="rounded=0;whiteSpace=wrap;html=1;fillColor=#fff2cc;strokeColor=#d6b656;" vertex="1" parent="1">
          <mxGeometry x="750" y="650" width="120" height="60" as="geometry" />
        </mxCell>
        <mxCell id="7JQGpFOacCHXD1f-ilUt-53" style="edgeStyle=orthogonalEdgeStyle;rounded=0;orthogonalLoop=1;jettySize=auto;html=1;entryX=0;entryY=0.5;entryDx=0;entryDy=0;" edge="1" parent="1" source="7JQGpFOacCHXD1f-ilUt-48" target="7JQGpFOacCHXD1f-ilUt-51">
          <mxGeometry relative="1" as="geometry" />
        </mxCell>
        <mxCell id="7JQGpFOacCHXD1f-ilUt-48" value="Dia" style="rounded=0;whiteSpace=wrap;html=1;fillColor=#fff2cc;strokeColor=#d6b656;" vertex="1" parent="1">
          <mxGeometry x="750" y="570" width="120" height="60" as="geometry" />
        </mxCell>
        <mxCell id="7JQGpFOacCHXD1f-ilUt-51" value="Motor: 15 minutos ligado e 15 minutos desligado" style="rounded=0;whiteSpace=wrap;html=1;fillColor=#fff2cc;strokeColor=#d6b656;" vertex="1" parent="1">
          <mxGeometry x="890" y="570" width="120" height="60" as="geometry" />
        </mxCell>
        <mxCell id="7JQGpFOacCHXD1f-ilUt-52" value="Motor: 15 minutos ligado e 1 hora desligado" style="rounded=0;whiteSpace=wrap;html=1;fillColor=#fff2cc;strokeColor=#d6b656;" vertex="1" parent="1">
          <mxGeometry x="890" y="650" width="120" height="60" as="geometry" />
        </mxCell>
      </root>
    </mxGraphModel>
  </diagram>
</mxfile>
